<?xml version="1.0" encoding="UTF-8"?>
<svg id="OBJECTS" xmlns="http://www.w3.org/2000/svg" version="1.1" viewBox="0 0 29.9 30">
  <!-- Generator: Adobe Illustrator 29.0.0, SVG Export Plug-In . SVG Version: 2.1.0 Build 186)  -->
  <defs>
    <style>
      .st0 {
        fill: #27295e;
      }
    </style>
  </defs>
  <path class="st0" d="M14.95,30C6.68,30-.05,23.27-.05,15S6.68,0,14.95,0s15,6.73,15,15-6.73,15-15,15ZM14.95.81C7.13.81.76,7.18.76,15s6.37,14.19,14.19,14.19,14.19-6.37,14.19-14.19S22.77.81,14.95.81Z"/>
  <g>
    <g>
      <path class="st0" d="M9.48,7.98c0,.57-.39,1.03-.87,1.03.48,0,.87.46.87,1.03,0-.57.39-1.03.87-1.03-.48,0-.87-.46-.87-1.03Z"/>
      <path class="st0" d="M20.32,17.37c0,.57-.39,1.03-.87,1.03.48,0,.87.46.87,1.03,0-.57.39-1.03.87-1.03-.48,0-.87-.46-.87-1.03Z"/>
      <path class="st0" d="M6.15,15.61c0,.18-.15.33-.33.33s-.33-.15-.33-.33.15-.33.33-.33.33.15.33.33Z"/>
      <circle class="st0" cx="14.55" cy="5.21" r=".33"/>
      <path class="st0" d="M24.35,20.26c0,.18-.15.33-.33.33s-.33-.15-.33-.33.15-.33.33-.33.33.15.33.33Z"/>
    </g>
    <g>
      <path class="st0" d="M19.18,3.8c-.25.13-.49.27-.71.43,0,0-.01,0-.02.01-1.34.95-2.21,2.42-2.4,4.08l-1.85,1.2c-.53-.27-1.18-.26-1.72.09-.76.49-1,1.49-.58,2.27-1.21.4-3.84,1.67-3.84,5.2v4.11s0,.03,0,.05c0,.01.15,1.45-.63,2.32-.39.44-.97.66-1.72.66h-1.13c-.52,0-.94-.42-.94-.94v-.4c0-.45.37-.82.82-.82s.82.37.82.82c0,.23.19.42.42.42s.42-.19.42-.42c0-.92-.75-1.66-1.66-1.66s-1.66.75-1.66,1.66v.4c0,.98.8,1.78,1.78,1.78h1.13c1,0,1.79-.31,2.34-.94.97-1.08.86-2.71.84-2.94v-4.09c0-3.28,2.61-4.25,3.47-4.47l.55.86c-1.8.43-2.78,1.89-2.78,4.19,0,.23.19.42.42.42s.42-.19.42-.42c0-2.03.82-3.18,2.43-3.43l.99,1.52c-1.29.25-2.26,1.39-2.26,2.75v3.1c0,1.04.47,1.98,1.2,2.61h-.58c-.98,0-1.78-.8-1.78-1.78v-1.08c0-.23-.19-.42-.42-.42s-.42.19-.42.42v1.08c0,1.45,1.18,2.63,2.63,2.63h3.55s.06,0,.09-.01c1.8-.1,2.71-.86,2.71-2.28v-.05c0-1.07-.87-1.95-1.95-1.95s-1.95.87-1.95,1.95c0,.23.19.42.42.42s.42-.19.42-.42c0-.61.5-1.11,1.11-1.11s1.11.5,1.11,1.11v.05c0,.72-.27,1.45-2.27,1.45h-.41c-1.44,0-2.61-1.17-2.61-2.61v-3.1c0-1.07.86-1.94,1.93-1.96l.11.17c.25.39.64.65,1.09.75.12.03.24.04.36.04.33,0,.65-.09.94-.28.39-.25.65-.64.75-1.09.03-.15.04-.3.04-.44l1.85-1.2c1.57.5,3.24.33,4.66-.49.04-.02.08-.04.11-.07.05-.03.1-.06.15-.09,1.35-.87,2.26-2.23,2.55-3.81.29-1.58-.07-3.17-1.02-4.48-1.66-2.29-4.81-3.04-7.32-1.75ZM17.34,15.95c-.05.23-.19.43-.39.56h0c-.2.13-.44.17-.67.12-.23-.05-.43-.19-.56-.39l-2.81-4.33s0,0,0,0l-.24-.36c-.27-.41-.15-.96.26-1.23.15-.1.32-.14.48-.14.29,0,.58.14.75.4l3.05,4.7c.13.2.17.44.12.67ZM20.14,13.63c-.12-.04-.26-.03-.37.04l-1.83,1.18-1.54-2.38-1.52-2.35s0,0,0,0l-.02-.02,1.83-1.18c.11-.07.18-.19.19-.32.1-1.37.75-2.61,1.79-3.46,2.35,2.37,4.16,5.15,5.36,8.27-1.2.6-2.59.68-3.89.22ZM26.7,9.87c-.23,1.26-.92,2.35-1.94,3.09-1.23-3.12-3.03-5.91-5.38-8.31.07-.04.13-.08.2-.11,2.15-1.1,4.84-.46,6.26,1.5.81,1.12,1.12,2.48.87,3.83Z"/>
      <path class="st0" d="M4.69,19.03c0,.23.19.42.42.42.94,0,1,.84,1.01,1.01,0,.23.19.42.42.42s.42-.19.42-.42c0-.74-.49-1.85-1.85-1.85-.23,0-.42.19-.42.42Z"/>
      <path class="st0" d="M13.82,20.83c0,.23.19.42.42.42s.42-.19.42-.42c0-.94.84-1,1.01-1.01.23,0,.42-.19.42-.42s-.19-.42-.42-.42c-.74,0-1.85.49-1.85,1.85Z"/>
    </g>
  </g>
</svg>