<?xml version="1.0" encoding="UTF-8"?>
<svg id="OBJECTS" xmlns="http://www.w3.org/2000/svg" version="1.1" viewBox="0 0 29.9 30">
  <!-- Generator: Adobe Illustrator 29.0.0, SVG Export Plug-In . SVG Version: 2.1.0 Build 186)  -->
  <defs>
    <style>
      .st0 {
        fill: #27295e;
      }
    </style>
  </defs>
  <path class="st0" d="M14.95,30C6.68,30-.05,23.27-.05,15S6.68,0,14.95,0s15,6.73,15,15-6.73,15-15,15ZM14.95.81C7.13.81.76,7.18.76,15s6.37,14.19,14.19,14.19,14.19-6.37,14.19-14.19S22.77.81,14.95.81Z"/>
  <g>
    <path class="st0" d="M25.91,18.49l-.18-.2c-.7-.8-.99-1.13-1.62-1.3-.48-.13-1.05.03-1.71.21-.79.22-1.68.46-2.37.15.05-.09.1-.18.14-.27,1.95-.11,3.44-.74,4.43-1.9,1.54-1.8,1.29-4.17,1.28-4.27-.03-.25-.25-.43-.5-.4-.25.03-.43.25-.4.5,0,.02.22,2.09-1.07,3.58-.75.87-1.88,1.39-3.35,1.54.08-.27.15-.55.19-.84,2.36-.92,2.76-2.96,2.81-3.92h0c.12,0,.23-.05.32-.13.09-.09.14-.2.14-.32,0-3-1.91-4.37-2.38-4.66-1.27-1.8-3.36-1.75-4.3-1.46-.2.06-.33.24-.32.44,0,.2.14.38.34.43,1.32.34,1.72,1.2,1.84,1.73h-.14s-2.95-1.86-2.95-1.86c-.13-.08-.28-.09-.42-.04-.14.06-.24.18-.27.32-.37,1.67,1.33,3.51,1.4,3.59.04.04.09.08.14.1l3.87,1.79s.1.03.15.04c-.12.42-.45,1.05-1.34,1.32-1.14-.67-2.94-.98-4.74-.98s-3.56.31-4.7.96c-.85-.29-1.16-.9-1.28-1.3.05,0,.1-.02.15-.04l3.87-1.79c.05-.02.1-.06.14-.1.07-.08,1.78-1.92,1.4-3.59-.03-.14-.13-.26-.27-.32-.14-.06-.29-.04-.42.04l-2.95,1.86h-.15c.11-.52.5-1.38,1.84-1.73.2-.05.34-.23.34-.43,0-.2-.13-.39-.32-.44-.94-.28-3.04-.33-4.3,1.46-.48.3-2.38,1.66-2.38,4.66,0,.12.05.24.14.32.09.08.2.13.32.13h0c.05.94.44,2.94,2.7,3.87.04.3.11.59.19.87-1.42-.17-2.51-.68-3.25-1.53-1.28-1.49-1.07-3.56-1.07-3.58.03-.25-.15-.47-.4-.5-.25-.03-.48.15-.5.4-.01.1-.27,2.47,1.28,4.27.97,1.14,2.43,1.77,4.33,1.89.05.1.11.21.17.31-.68.26-1.52.03-2.28-.18-.66-.18-1.23-.34-1.71-.21-.62.17-.91.5-1.62,1.29l-.18.2c-.95,1.07-.7,2.4-.69,2.45.04.22.23.37.45.37.03,0,.06,0,.09,0,.25-.05.41-.29.36-.53,0,0-.16-.95.48-1.68l.18-.2c.67-.76.82-.93,1.17-1.02.25-.07.75.07,1.24.21.93.26,2.06.56,3.05.07.11.13.22.26.34.38-.21.17-.42.3-.5.31-.28,0-1.85-.2-2.77-.32-.16-.02-.31.04-.41.16l-2.41,2.92c-.05.06-.08.13-.1.21-.03.14-.23,1.43.35,2.24.09.12.23.19.37.19.09,0,.18-.03.27-.09.2-.15.25-.43.1-.63-.27-.37-.25-1.08-.21-1.43l2.17-2.63c.65.09,2.27.3,2.64.3.4,0,.87-.33,1.19-.61.16.12.33.23.5.34-.24.3-.59.51-.76.59l-1.44.37c-.14.04-.25.13-.3.26l-.5,1.16c-.06.13-.05.28.02.4l1.17,2.13c.08.15.24.24.4.24.07,0,.15-.02.22-.06.22-.12.3-.4.18-.62l-1.06-1.94.32-.75,1.26-.33s.04-.01.06-.02c.04-.02.81-.35,1.26-1.03.69.28,1.44.44,2.23.44s1.6-.17,2.31-.47c.45.7,1.24,1.04,1.28,1.06.02,0,.04.02.06.02l1.26.33.32.75-1.06,1.94c-.12.22-.04.5.18.62.07.04.14.06.22.06.16,0,.32-.09.4-.24l1.17-2.13c.07-.12.07-.27.02-.4l-.5-1.16c-.06-.13-.17-.23-.3-.26l-1.44-.37c-.11-.05-.54-.28-.8-.63.17-.1.33-.22.48-.34.33.29.83.65,1.24.65.37,0,1.99-.21,2.64-.3l2.17,2.63c.04.34.06,1.06-.21,1.43-.15.2-.1.49.1.63.08.06.17.09.27.09.14,0,.28-.07.37-.19.58-.81.37-2.09.35-2.24-.01-.08-.05-.15-.1-.21l-2.41-2.92c-.1-.12-.25-.18-.41-.16-.92.12-2.49.32-2.76.32-.1-.01-.33-.16-.57-.36.11-.12.22-.24.32-.37,1.01.55,2.17.23,3.13-.03.49-.13.99-.27,1.24-.21.34.09.5.26,1.17,1.02l.18.2c.64.73.49,1.64.48,1.68-.05.25.11.48.36.53.03,0,.06,0,.09,0,.21,0,.4-.15.45-.37.01-.06.26-1.38-.69-2.45ZM17.43,8.74c-.33-.37-.93-1.19-1.1-1.98l2.35,1.48c.07.04.15.07.24.07h.78c.24,0,.45-.18.46-.42.03-.56-.18-1.52-.97-2.25.6.13,1.26.46,1.77,1.22.04.06.1.11.16.15.02.01,1.79.99,1.99,3.46l-1.97-.03-3.7-1.71ZM21.92,11.37h.74c-.03.7-.3,2.13-1.85,2.92-.03-.36-.16-.67-.38-.95.96-.49,1.36-1.34,1.48-1.97ZM8.8,7.02c.07-.04.12-.09.16-.15.5-.76,1.17-1.09,1.77-1.22-.79.74-1,1.7-.97,2.25.01.24.22.42.46.43h.78c.08-.01.17-.03.24-.08l2.35-1.48c-.18.79-.77,1.61-1.1,1.98l-3.7,1.71-1.97.03c.2-2.45,1.91-3.42,1.99-3.46ZM9,14.23c-1.45-.8-1.71-2.18-1.75-2.85h.74c.12.6.51,1.42,1.41,1.92-.23.27-.38.59-.41.94ZM14.91,19.42c-2.76,0-5.01-2.25-5.01-5.01,0-1.01,2.2-1.81,5.01-1.81,1.36,0,2.67.2,3.6.54.53.19,1.41.62,1.41,1.27,0,2.76-2.25,5.01-5.01,5.01Z"/>
    <g>
      <path class="st0" d="M26.31,14.87c0,.63-.43,1.14-.96,1.14.53,0,.96.51.96,1.14,0-.63.43-1.14.96-1.14-.53,0-.96-.51-.96-1.14Z"/>
      <path class="st0" d="M14.96,8.73c0,.63-.43,1.14-.96,1.14.53,0,.96.51.96,1.14,0-.63.43-1.14.96-1.14-.53,0-.96-.51-.96-1.14Z"/>
      <path class="st0" d="M14.47,21.53c.04.63-.35,1.17-.88,1.2.53-.04.99.45,1.04,1.07-.04-.63.35-1.17.88-1.2-.53.04-.99-.45-1.04-1.07Z"/>
      <circle class="st0" cx="18.19" cy="21.9" r=".36"/>
      <path class="st0" d="M12.26,11.37c0,.2-.16.36-.36.36s-.36-.16-.36-.36.16-.36.36-.36.36.16.36.36Z"/>
      <circle class="st0" cx="4" cy="15.95" r=".36"/>
    </g>
  </g>
</svg>