<?xml version="1.0" encoding="UTF-8"?>
<svg id="OBJECTS" xmlns="http://www.w3.org/2000/svg" version="1.1" viewBox="0 0 29.9 30">
  <!-- Generator: Adobe Illustrator 29.0.0, SVG Export Plug-In . SVG Version: 2.1.0 Build 186)  -->
  <defs>
    <style>
      .st0 {
        fill: #27295e;
      }
    </style>
  </defs>
  <path class="st0" d="M14.95,30C6.68,30-.05,23.27-.05,15S6.68,0,14.95,0s15,6.73,15,15-6.73,15-15,15ZM14.95.81C7.13.81.76,7.18.76,15s6.37,14.19,14.19,14.19,14.19-6.37,14.19-14.19S22.77.81,14.95.81Z"/>
  <g>
    <g>
      <path class="st0" d="M15.31,24.31c0,.56-.39,1.02-.86,1.02.48,0,.86.46.86,1.02,0-.56.39-1.02.86-1.02-.48,0-.86-.46-.86-1.02Z"/>
      <path class="st0" d="M19.58,7.98c0,.56-.39,1.02-.86,1.02.48,0,.86.46.86,1.02,0-.56.39-1.02.86-1.02-.48,0-.86-.46-.86-1.02Z"/>
      <path class="st0" d="M6.92,16.1c0,.56-.39,1.02-.86,1.02.48,0,.86.46.86,1.02,0-.56.39-1.02.86-1.02-.48,0-.86-.46-.86-1.02Z"/>
      <path class="st0" d="M23.84,17.12c0,.18-.14.32-.32.32s-.32-.14-.32-.32.14-.32.32-.32.32.14.32.32Z"/>
      <path class="st0" d="M11.62,9.7c0,.18-.14.32-.32.32s-.32-.14-.32-.32.14-.32.32-.32.32.14.32.32Z"/>
      <path class="st0" d="M17.07,4.66c0,.18-.14.32-.32.32s-.32-.14-.32-.32.14-.32.32-.32.32.14.32.32Z"/>
    </g>
    <path class="st0" d="M8.19,24.66c1.03.9,4.69,1.28,5.11,1.32.01,0,.03,0,.04,0,0,0,0,0,0,0h0s0,0,0,0c.03,0,.05,0,.08,0,0,0,.02,0,.03,0,.02,0,.04-.01.06-.02,0,0,.02-.01.03-.02.02,0,.03-.02.05-.03.02-.02.05-.04.07-.06.02-.02.04-.05.05-.08,0,0,0-.02.01-.02,0-.02.02-.04.02-.06,0,0,0-.02,0-.03,0-.02,0-.04,0-.06,0-.01,0-.02,0-.03,0-.02,0-.05,0-.07,0,0,0-.01,0-.02-.09-.41-.96-3.99-1.98-4.89-.55-.48-1.24-.71-1.97-.67-.48.03-.94.19-1.33.45-.02-.23,0-.51.15-.76.26-.43.99-.93,2.92-.99.17,1.55,1.29,2.83,2.76,3.23-.04.12-.07.24-.07.38,0,.23.19.42.42.42s.42-.19.42-.42c0-.13.11-.24.24-.24s.24.11.24.24c0,.23.19.42.42.42s.42-.19.42-.42c0-.13-.03-.26-.07-.38,1.47-.4,2.59-1.68,2.77-3.23,2.07.03,2.83.55,3.1.99.15.25.18.53.15.76-.99-.67-2.35-.62-3.29.21-1.03.9-1.89,4.48-1.98,4.89,0,0,0,.01,0,.02,0,.02,0,.05,0,.07,0,.01,0,.02,0,.03,0,.02,0,.04,0,.06,0,.01,0,.02,0,.03,0,.02.01.04.02.06,0,0,0,.02.01.02.01.03.03.05.05.08.02.02.04.04.07.06.02.01.03.02.05.03,0,0,.02.01.03.02.02,0,.04.01.06.02,0,0,.02,0,.03,0,.03,0,.05,0,.08,0,0,0,0,0,0,0h0s0,0,0,0c.01,0,.03,0,.04,0,.41-.04,4.08-.42,5.11-1.32,1.06-.93,1.22-2.5.42-3.62.13-.39.3-1.14-.14-1.86-.55-.9-1.83-1.37-3.81-1.4,0-.06-.01-.12-.02-.19,2.68-.27,3.81-1.5,3.85-1.55.15-.17.14-.43-.03-.59-.17-.15-.43-.14-.59.03,0,.01-.97,1.05-3.36,1.28-.04-.22-.09-.46-.15-.7,2.64-.28,3.75-1.49,3.8-1.55.15-.17.14-.43-.03-.59-.17-.15-.43-.14-.59.03,0,.01-.98,1.06-3.39,1.29-.07-.23-.14-.46-.22-.69,2.71-.26,3.85-1.5,3.9-1.56.15-.17.14-.43-.03-.59-.17-.15-.43-.14-.59.03,0,.01-1.03,1.12-3.59,1.3-.1-.24-.21-.48-.32-.71,2.71-.26,3.85-1.5,3.9-1.56.15-.17.14-.43-.03-.59-.17-.15-.43-.14-.59.03-.01.01-1.06,1.15-3.69,1.31-.01,0-.02,0-.04,0-.19-.3-.4-.56-.62-.77,0-.02,0-.04,0-.05v-2.23c0-1.65-1.34-2.18-2.05-2.23,0,0-.02,0-.03,0-1.11,0-2.11-.87-2.12-1.86,0-.51.18-1,.54-1.37.36-.37.84-.57,1.36-.57h2.88c.7,0,1.16.14,1.3.41.19.35-.11.95-.23,1.14-.08.13-.09.29-.02.42.07.13.21.22.37.22.42,0,.83-.18,1.12-.49.29-.31.43-.74.39-1.16-.07-.76-.75-1.36-1.55-1.36h-5.92c-.74,0-1.43.29-1.95.82-.52.53-.79,1.22-.78,1.96.03,1.48,1.29,2.68,2.81,2.68.77,0,1.39.63,1.39,1.39v2.12c-.29.24-.55.56-.8.93,0,0,0,0,0,0-2.59-.16-3.67-1.29-3.69-1.31-.15-.17-.41-.18-.59-.03-.17.15-.19.42-.03.59.05.05,1.18,1.28,3.86,1.55-.11.23-.22.46-.32.71-2.49-.19-3.54-1.28-3.56-1.3-.15-.17-.41-.18-.59-.03-.17.15-.19.42-.03.59.05.05,1.18,1.29,3.87,1.55-.08.23-.15.46-.22.69-2.35-.23-3.34-1.26-3.36-1.29-.15-.17-.41-.18-.59-.03-.17.15-.19.42-.03.59.05.05,1.15,1.26,3.76,1.55-.06.24-.11.47-.15.7-2.32-.23-3.31-1.26-3.32-1.28-.15-.17-.41-.18-.59-.03-.17.15-.19.42-.03.59.05.05,1.17,1.27,3.82,1.55,0,.07-.01.13-.02.19-1.88.06-3.1.53-3.63,1.4-.43.71-.27,1.47-.14,1.86-.8,1.12-.64,2.69.42,3.62ZM22.05,24.03c-.46.4-1.96.74-3.3.94l2.47-2.16c.17-.15.19-.41.04-.59-.15-.17-.41-.19-.59-.04l-2.47,2.16c.38-1.31.92-2.75,1.37-3.15.78-.68,1.97-.6,2.65.18.68.78.6,1.97-.18,2.65ZM10.78,5.12c0-.51.18-1,.54-1.37.28-.29.64-.47,1.03-.54-.49.52-.76,1.2-.74,1.92.01.7.33,1.34.83,1.82-.93-.14-1.65-.91-1.66-1.84ZM14.54,7.81c.18.02,1.26.17,1.26,1.39v1.74c-.16-.06-.33-.09-.51-.09-.11,0-.22.02-.32.04v-1.68c0-.53-.19-1.02-.5-1.4.02,0,.04,0,.06,0ZM12.42,17.33s.01-.06.02-.09c0,0,0,0,0-.01.07-.43.18-.91.31-1.4,0,0,0-.02,0-.03.55-1.97,1.58-4.11,2.55-4.11,1.41,0,2.96,4.57,2.96,6.51,0,1.63-1.33,2.96-2.96,2.96s-2.96-1.33-2.96-2.96c0-.25.03-.54.07-.86ZM8.56,21.38c.33-.38.79-.6,1.29-.64.04,0,.09,0,.13,0,.46,0,.89.16,1.24.47.46.4.99,1.84,1.37,3.15l-2.47-2.16c-.17-.15-.44-.13-.59.04-.15.17-.13.44.04.59l2.47,2.16c-1.34-.21-2.85-.54-3.3-.94-.78-.68-.86-1.87-.18-2.65Z"/>
  </g>
</svg>