<?xml version="1.0" encoding="UTF-8"?>
<svg id="OBJECTS" xmlns="http://www.w3.org/2000/svg" version="1.1" viewBox="0 0 29.9 30">
  <!-- Generator: Adobe Illustrator 29.0.0, SVG Export Plug-In . SVG Version: 2.1.0 Build 186)  -->
  <defs>
    <style>
      .st0 {
        fill: #27295e;
      }
    </style>
  </defs>
  <path class="st0" d="M14.95,30C6.68,30-.05,23.27-.05,15S6.68,0,14.95,0s15,6.73,15,15-6.73,15-15,15ZM14.95.81C7.13.81.76,7.18.76,15s6.37,14.19,14.19,14.19,14.19-6.37,14.19-14.19S22.77.81,14.95.81Z"/>
  <g>
    <g>
      <path class="st0" d="M5.91,19.37c0,.68-.47,1.24-1.05,1.24.58,0,1.05.55,1.05,1.24,0-.68.47-1.24,1.05-1.24-.58,0-1.05-.55-1.05-1.24Z"/>
      <path class="st0" d="M11.43,4.26c0,.68-.47,1.24-1.05,1.24.58,0,1.05.55,1.05,1.24,0-.68.47-1.24,1.05-1.24-.58,0-1.05-.55-1.05-1.24Z"/>
      <path class="st0" d="M21.87,22.3c0,.68-.47,1.24-1.05,1.24.58,0,1.05.55,1.05,1.24,0-.68.47-1.24,1.05-1.24-.58,0-1.05-.55-1.05-1.24Z"/>
      <path class="st0" d="M23.47,20.21c0,.22-.18.39-.39.39s-.39-.18-.39-.39.18-.39.39-.39.39.18.39.39Z"/>
      <path class="st0" d="M18.87,7.13c0,.22-.18.39-.39.39s-.39-.18-.39-.39.18-.39.39-.39.39.18.39.39Z"/>
      <path class="st0" d="M11.25,23.93c0,.22-.18.39-.39.39s-.39-.18-.39-.39.18-.39.39-.39.39.18.39.39Z"/>
    </g>
    <g>
      <path class="st0" d="M15.08,9.69c-.28,0-.5.22-.5.5v7.92c0,.28.22.5.5.5s.5-.22.5-.5v-7.92c0-.28-.22-.5-.5-.5Z"/>
      <path class="st0" d="M23.44,6.74c-1.68,0-3.26.64-4.47,1.79-1.22-.71-2.6-1.09-4.03-1.09s-2.8.38-4.03,1.09c-1.21-1.15-2.79-1.79-4.47-1.79C2.88,6.74-.02,9.64-.02,13.22c0,1.27.37,2.5,1.06,3.55,0,0,0,0,0,0,.43,1.04,1.45,1.73,2.59,1.73,1.55,0,2.81-1.26,2.81-2.81,0-1.09-.64-2.09-1.63-2.54-.18-.08-.4-.05-.55.08-.15.13-.2.34-.14.53.06.19.1.38.1.58,0,.99-.81,1.8-1.8,1.8-.18,0-.35-.03-.51-.08-.01-.13-.02-.25-.02-.37,0-.99.41-1.95,1.12-2.64.68-.66,1.56-1,2.48-.98.75.02,1.36.32,1.91.67-.31.86-.47,1.77-.47,2.7,0,0,0,0,0,0,0,.02,0,.07,0,.16.06,3.33,2.22,6.33,5.35,7.43v1.9c0,1.47,1.2,2.67,2.67,2.67s2.67-1.2,2.67-2.67v-1.52c.02-.07.04-.13.06-.19.02-.07.01-.15,0-.22,3.12-1.13,5.27-4.15,5.3-7.5,0-.03,0-.05,0-.05,0-.94-.16-1.85-.47-2.72.56-.36,1.16-.65,1.91-.67.92-.03,1.8.32,2.48.98.71.69,1.12,1.65,1.12,2.64,0,.12,0,.25-.02.37-.17.05-.34.08-.51.08-.99,0-1.8-.81-1.8-1.8,0-.19.03-.39.1-.58.06-.19,0-.4-.14-.53-.15-.13-.36-.17-.55-.08-.99.46-1.63,1.46-1.63,2.54,0,1.55,1.26,2.81,2.81,2.81,1.14,0,2.16-.69,2.59-1.73,0,0,0,0,0,0,.69-1.06,1.06-2.29,1.06-3.55,0-3.57-2.91-6.48-6.48-6.48ZM5.19,14.79c.16.27.25.58.25.91,0,.99-.81,1.8-1.8,1.8-.39,0-.77-.13-1.07-.35,1.33-.07,2.42-1.07,2.63-2.36ZM26.27,17.5c-.99,0-1.8-.81-1.8-1.8,0-.32.09-.64.25-.91.21,1.29,1.3,2.29,2.63,2.36-.3.22-.67.35-1.07.35ZM5.52,11.07c-1.19-.04-2.34.41-3.21,1.26-.57.55-.98,1.23-1.21,1.98-.07-.36-.11-.72-.11-1.09,0-3.02,2.46-5.48,5.48-5.48,1.46,0,2.84.57,3.87,1.6,0,0,.01.01.02.02.01,0,1.02.93,1.07,1.93.02.4-.12.76-.42,1.1-.92,1.01-1.39.68-2.44-.06-.77-.54-1.72-1.22-3.05-1.26ZM8.47,18.16c.73.56,1.81,1.07,3.4,1.37.28.93.37,1.84.4,2.43-1.73-.72-3.09-2.11-3.8-3.8ZM8.03,16.01c1.05.11,1.92.52,2.59,1.23.33.35.6.75.81,1.18-2.41-.6-3.17-1.73-3.4-2.4ZM14.45,26.54c-.68-.21-1.17-.85-1.17-1.59v-.11c.31.28.7.51,1.17.6v1.1ZM13.66,23.76c1.05.26,1.91.25,2.54.16-.27.31-.67.57-1.25.57-.63,0-1.04-.35-1.29-.73ZM16.62,24.95c0,.75-.49,1.38-1.17,1.59v-1.1c.47-.09.86-.29,1.17-.55v.05ZM17.7,21.93c.02-.56.09-1.39.33-2.25,1.48-.18,2.52-.63,3.25-1.18-.73,1.52-1.99,2.75-3.57,3.43ZM18.4,18.61c.22-.5.51-.97.89-1.37.66-.71,1.53-1.12,2.59-1.23-.22.77-.97,2.15-3.48,2.6ZM18.56,16.55c-1.79,1.91-1.88,4.94-1.87,5.88-.04.07-.07.16-.07.25v.13c-.53.17-1.68.37-3.34-.2.02-.64.02-4-1.93-6.06-.88-.93-2.03-1.45-3.41-1.56.04-.56.14-1.12.31-1.65.99.68,2.11,1.26,3.49-.27.49-.54.71-1.15.68-1.83-.04-.78-.44-1.47-.8-1.95,1.02-.55,2.16-.84,3.33-.84s2.31.29,3.33.84c-.36.48-.76,1.18-.81,1.95-.04.67.19,1.29.68,1.83,1.38,1.53,2.5.95,3.49.27.17.53.27,1.09.31,1.65-1.38.1-2.52.62-3.4,1.56ZM28.81,14.31c-.23-.74-.65-1.43-1.21-1.98-.84-.82-1.93-1.26-3.07-1.26-.05,0-.09,0-.14,0-1.17.04-2.06.57-2.78,1.07,0,0,0,0,0,0-.09.06-.18.13-.27.19-1.05.74-1.52,1.08-2.44.06-.3-.34-.44-.7-.42-1.1.05-1.01,1.06-1.92,1.07-1.93,0,0,.01-.01.02-.02,1.03-1.03,2.41-1.6,3.87-1.6,3.02,0,5.48,2.46,5.48,5.48,0,.37-.04.73-.11,1.09Z"/>
    </g>
  </g>
</svg>