<?xml version="1.0" encoding="UTF-8"?>
<svg id="OBJECTS" xmlns="http://www.w3.org/2000/svg" version="1.1" viewBox="0 0 29.9 30">
  <!-- Generator: Adobe Illustrator 29.0.0, SVG Export Plug-In . SVG Version: 2.1.0 Build 186)  -->
  <defs>
    <style>
      .st0 {
        fill: #27295e;
      }
    </style>
  </defs>
  <path class="st0" d="M14.95,30C6.68,30-.05,23.27-.05,15S6.68,0,14.95,0s15,6.73,15,15-6.73,15-15,15ZM14.95.82C7.13.82.76,7.19.76,15.01s6.37,14.19,14.19,14.19,14.19-6.37,14.19-14.19S22.77.82,14.95.82Z"/>
  <g>
    <g>
      <path class="st0" d="M15.45,4.53c0,.58-.4,1.06-.89,1.06.49,0,.89.47.89,1.06,0-.58.4-1.06.89-1.06-.49,0-.89-.47-.89-1.06Z"/>
      <path class="st0" d="M8.17,24.02c0,.58-.4,1.06-.89,1.06.49,0,.89.47.89,1.06,0-.58.4-1.06.89-1.06-.49,0-.89-.47-.89-1.06Z"/>
      <path class="st0" d="M22.85,17.21c0,.58-.4,1.06-.89,1.06.49,0,.89.47.89,1.06,0-.58.4-1.06.89-1.06-.49,0-.89-.47-.89-1.06Z"/>
      <path class="st0" d="M8.17,9.58c0,.18-.15.33-.33.33s-.33-.15-.33-.33.15-.33.33-.33.33.15.33.33Z"/>
      <path class="st0" d="M20.97,11.64c0,.18-.15.33-.33.33s-.33-.15-.33-.33.15-.33.33-.33.33.15.33.33Z"/>
      <path class="st0" d="M7.18,19c0,.18-.15.33-.33.33s-.33-.15-.33-.33.15-.33.33-.33.33.15.33.33Z"/>
    </g>
    <path class="st0" d="M24.93,3.93c-.18-.01-4.31-.26-7.15,2.4-1.61,1.5-2.46,3.63-2.54,6.32-.1,0-.19,0-.29,0s-.19,0-.29,0c-.08-2.69-.93-4.81-2.54-6.32-2.84-2.66-6.97-2.41-7.15-2.4-.21.01-.38.19-.4.4s.14.4.35.44c.07.01,6.51,1.21,6.62,9-.21.16-.4.33-.59.51-1.27-1.84-3.56-1.89-4.68-1.64-.2.05-.34.23-.33.44.12,2.38,2.14,3.45,3.53,3.77-.12.46-.19.94-.19,1.44v2.21c0,2.22,1.34,4.26,3.35,5.16.03,1.25,1.05,2.26,2.31,2.26s2.28-1.01,2.31-2.26c2.01-.9,3.35-2.94,3.35-5.16v-2.21c0-.49-.06-.97-.18-1.42,1.39-.3,3.47-1.37,3.59-3.79.01-.21-.13-.39-.33-.44-1.13-.26-3.45-.2-4.71,1.68-.2-.2-.4-.38-.63-.55.11-7.9,6.35-8.96,6.61-9,.21-.03.37-.22.36-.44,0-.22-.18-.39-.4-.41ZM7.84,5.07c1.2.28,2.58.83,3.7,1.88,1.45,1.36,2.21,3.31,2.27,5.8-.5.1-.98.27-1.43.5-.23-4.6-2.57-6.98-4.54-8.18ZM6.84,13.42c.78-.09,2.58-.08,3.54,1.54-.24.33-.45.7-.62,1.08-.75-.17-2.6-.77-2.92-2.62ZM12.64,24.72c-1.51-.84-2.5-2.46-2.5-4.21v-.08c.58.62,1.4,1.01,2.31,1.01h.19v3.28ZM10.19,18.72h.16c1.12,0,2.05.8,2.25,1.86h-.15c-1.12,0-2.05-.8-2.26-1.86ZM13.49,25.61v-1.3l1.04,1.04v.38l-.94.4c-.06-.16-.1-.34-.1-.52ZM14.2,23.82h1.51l-.75.75-.75-.75ZM14.95,27.07c-.3,0-.58-.09-.81-.25l.81-.34.81.34c-.23.16-.51.25-.81.25ZM16.41,25.61c0,.18-.04.36-.1.52l-.94-.4v-.38l1.04-1.04v1.3ZM19.76,20.5c0,1.76-.98,3.38-2.5,4.21v-3.28h.25c.89,0,1.69-.37,2.25-.97v.04ZM17.3,20.59c.2-1.06,1.13-1.86,2.25-1.86h.17c-.2,1.07-1.1,1.86-2.21,1.86h-.2ZM23.13,13.42c-.32,1.92-2.28,2.49-2.98,2.64-.16-.37-.36-.72-.59-1.04.95-1.68,2.78-1.68,3.57-1.6ZM19.74,17.87h-.19c-1.73,0-3.14,1.41-3.14,3.14v2.03c-.09-.05-.2-.07-.31-.07h-2.31c-.11,0-.21.03-.31.07v-2.03c0-1.73-1.41-3.14-3.14-3.14h-.19c.21-2.45,2.28-4.38,4.79-4.38s4.57,1.93,4.79,4.38ZM17.51,13.26c-.45-.23-.92-.4-1.43-.5.06-2.49.82-4.44,2.27-5.8,1.08-1.01,2.4-1.56,3.57-1.85-1.95,1.2-4.2,3.57-4.42,8.15Z"/>
  </g>
</svg>