<?xml version="1.0" encoding="UTF-8"?>
<svg id="OBJECTS" xmlns="http://www.w3.org/2000/svg" version="1.1" viewBox="0 0 29.9 30">
  <!-- Generator: Adobe Illustrator 29.0.0, SVG Export Plug-In . SVG Version: 2.1.0 Build 186)  -->
  <defs>
    <style>
      .st0 {
        fill: #27295e;
      }
    </style>
  </defs>
  <path class="st0" d="M14.95,30C6.68,30-.05,23.27-.05,15S6.68,0,14.95,0s15,6.73,15,15-6.73,15-15,15ZM14.95.81C7.13.81.76,7.18.76,15s6.37,14.19,14.19,14.19,14.19-6.37,14.19-14.19S22.77.81,14.95.81Z"/>
  <g>
    <g>
      <path class="st0" d="M17.34,16.83c.15-.12.21-.32.15-.51-.06-.18-.24-.31-.43-.31h-3.98c-.19,0-.37.12-.43.3-.06.18,0,.39.15.5l1.81,1.43v1.12l-1.62.79c-.23.11-.32.38-.21.61.08.16.24.26.41.26.07,0,.13-.01.2-.05l1.69-.82,1.71.75c.23.1.5,0,.6-.23.1-.23,0-.5-.23-.6l-1.63-.72v-1.11l1.83-1.43Z"/>
      <path class="st0" d="M13.52,14.95c.2,0,.38-.13.44-.33.07-.24-.07-.49-.31-.56l-1.75-.5c-.24-.07-.49.07-.56.31-.07.24.07.49.31.56l1.75.5s.08.02.12.02Z"/>
      <path class="st0" d="M18.25,13.56l-1.85.53c-.24.07-.38.32-.31.56.06.2.24.33.44.33.04,0,.08,0,.12-.02l1.85-.53c.24-.07.38-.32.31-.56-.07-.24-.32-.38-.56-.31Z"/>
      <path class="st0" d="M14.96,9.5c-3.52,0-5.71,1.86-5.71,4.86,0,1.88.9,3.62,2.41,4.72v1.67c0,1.1.9,2,2,2h2.78c1.1,0,2-.9,2-2v-1.67c1.53-1.09,2.43-2.84,2.43-4.72,0-2.96-2.33-4.86-5.93-4.86ZM17.78,18.46c-.13.08-.22.22-.22.39l-.02,1.91c0,.6-.49,1.1-1.1,1.1h-2.78c-.6,0-1.1-.49-1.1-1.1v-1.84c.03-.17-.05-.35-.2-.45-1.38-.91-2.21-2.45-2.21-4.1,0-2.48,1.79-3.96,4.8-3.96,2.43,0,5.02,1.04,5.02,3.96,0,1.65-.82,3.18-2.19,4.09Z"/>
      <path class="st0" d="M22.64,8.03l1.04-1.04c.1-.1.15-.24.13-.38-.02-.14-.11-.26-.23-.33-.19-.1-4.55-2.46-8.51-.08-3.96-2.38-8.32-.03-8.51.08-.12.07-.21.19-.23.33-.02.14.03.28.13.38l1.04,1.04c-4.34,2.39-3.93,5.88-3.91,6.03.03.23.22.39.45.39h1.69c-.28,1.16-.66,3.79.73,6.46,1.42,2.73,4.28,4.69,8.49,5.82.04.01.08.02.12.02s.08,0,.12-.02c4.21-1.13,7.07-3.09,8.5-5.82,1.39-2.67,1.02-5.3.74-6.46h1.69c.23,0,.42-.17.45-.39.02-.15.43-3.64-3.91-6.03ZM23.81,13.55c-.15,0-.29.07-.37.19-.09.12-.11.28-.06.42.01.03,1.12,3.2-.51,6.33-1.29,2.48-3.92,4.27-7.81,5.33-3.88-1.06-6.51-2.85-7.8-5.32-1.64-3.13-.52-6.32-.51-6.35.05-.14.03-.29-.05-.42-.08-.12-.22-.19-.37-.19h-1.85c.04-.93.5-3.31,3.98-4.99.13-.06.23-.19.25-.33.02-.14-.02-.29-.13-.4l-1.02-1.02c1.27-.53,4.47-1.53,7.26.3.15.1.35.1.5,0,2.8-1.83,6-.83,7.26-.3l-1.02,1.02c-.1.1-.15.25-.13.4.02.14.12.27.25.33,3.48,1.68,3.94,4.06,3.98,4.99h-1.85Z"/>
    </g>
    <g>
      <path class="st0" d="M26.33,15.08c0,.62-.43,1.13-.95,1.13.53,0,.95.51.95,1.13,0-.62.43-1.13.95-1.13-.53,0-.95-.51-.95-1.13Z"/>
      <path class="st0" d="M14.58,2.75c0,.62-.43,1.13-.95,1.13.53,0,.95.51.95,1.13,0-.62.43-1.13.95-1.13-.53,0-.95-.51-.95-1.13Z"/>
      <path class="st0" d="M21.84,23.94c0,.62-.43,1.13-.95,1.13.53,0,.95.51.95,1.13,0-.62.43-1.13.95-1.13-.53,0-.95-.51-.95-1.13Z"/>
      <path class="st0" d="M3.49,14.89c.04.62-.35,1.16-.88,1.19.52-.04.98.44,1.03,1.06-.04-.62.35-1.16.88-1.19-.52.04-.98-.44-1.03-1.06Z"/>
      <path class="st0" d="M26.02,8.37c0,.2-.16.36-.36.36s-.36-.16-.36-.36.16-.36.36-.36.36.16.36.36Z"/>
      <path class="st0" d="M17.87,3.88c0,.2-.16.36-.36.36s-.36-.16-.36-.36.16-.36.36-.36.36.16.36.36Z"/>
      <circle class="st0" cx="5.97" cy="22.4" r=".36"/>
    </g>
  </g>
</svg>