<?xml version="1.0" encoding="UTF-8"?>
<svg id="OBJECTS" xmlns="http://www.w3.org/2000/svg" version="1.1" viewBox="0 0 29.9 30">
  <!-- Generator: Adobe Illustrator 29.0.0, SVG Export Plug-In . SVG Version: 2.1.0 Build 186)  -->
  <defs>
    <style>
      .st0 {
        fill: #27295e;
      }
    </style>
  </defs>
  <path class="st0" d="M14.95,30C6.68,30-.05,23.27-.05,15S6.68,0,14.95,0s15,6.73,15,15-6.73,15-15,15ZM14.95.81C7.13.81.76,7.18.76,15s6.37,14.19,14.19,14.19,14.19-6.37,14.19-14.19S22.77.81,14.95.81Z"/>
  <g>
    <g>
      <path class="st0" d="M10.81,17.44c0,.61-.42,1.11-.94,1.11.52,0,.94.5.94,1.11,0-.61.42-1.11.94-1.11-.52,0-.94-.5-.94-1.11Z"/>
      <path class="st0" d="M13.65,1.46c0,.61-.42,1.11-.94,1.11.52,0,.94.5.94,1.11,0-.61.42-1.11.94-1.11-.52,0-.94-.5-.94-1.11Z"/>
      <path class="st0" d="M19.94,21.47c0,.61-.42,1.11-.94,1.11.52,0,.94.5.94,1.11,0-.61.42-1.11.94-1.11-.52,0-.94-.5-.94-1.11Z"/>
      <circle class="st0" cx="8.11" cy="23.03" r=".35"/>
      <path class="st0" d="M5.03,8.29c0,.19-.16.35-.35.35s-.35-.16-.35-.35.16-.35.35-.35.35.16.35.35Z"/>
      <circle class="st0" cx="26.23" cy="8.5" r=".35"/>
    </g>
    <g>
      <path class="st0" d="M6.93,18.53c1.99,0,3.62-1.62,3.62-3.62,0,0,0,0,0,0,0-.02,0-.03,0-.05,0-.01,0-.03,0-.04,0-.01,0-.02,0-.03,0-.02-.01-.04-.02-.06,0,0,0,0,0,0l-2.88-6.45h5.13v16.28h-5.83c-.25,0-.45.2-.45.45s.2.45.45.45h15.69c.25,0,.45-.2.45-.45s-.2-.45-.45-.45h-5.83V8.29h5.13l-2.88,6.45s0,0,0,0c0,.02-.01.04-.02.06,0,.01,0,.02,0,.03,0,.01,0,.03,0,.04,0,.02,0,.03,0,.05,0,0,0,0,0,0,0,1.99,1.62,3.62,3.62,3.62s3.62-1.62,3.62-3.62c0,0,0,0,0,0,0-.02,0-.03,0-.05,0-.01,0-.03,0-.04,0-.01,0-.02,0-.03,0-.02-.01-.04-.02-.06,0,0,0,0,0,0l-3.16-7.07s0,0,0,0h0s0-.01,0-.02c-.02-.03-.03-.06-.06-.09,0,0-.01-.01-.02-.02-.03-.03-.05-.05-.08-.07,0,0,0,0-.01,0-.03-.02-.06-.03-.09-.04,0,0-.02,0-.03,0-.04,0-.08-.02-.12-.02H6.93s-.08,0-.12.02c0,0-.02,0-.03,0-.03.01-.06.02-.09.04,0,0,0,0-.01,0-.03.02-.06.05-.08.07,0,0-.01.01-.02.02-.02.03-.04.06-.06.09,0,0,0,0,0,0h0s0,0,0,0l-3.16,7.07s0,0,0,0c0,.02-.01.04-.02.06,0,.01,0,.02,0,.03,0,.01,0,.03,0,.04,0,.02,0,.03,0,.05,0,0,0,0,0,0,0,1.99,1.62,3.62,3.62,3.62ZM22.62,17.64c-1.35,0-2.47-.98-2.68-2.27h5.36c-.21,1.29-1.34,2.27-2.68,2.27ZM25.09,14.47h-4.95l2.48-5.53,2.48,5.53ZM13.65,8.36h2.24v16.2h-2.24V8.36ZM6.93,8.94l2.48,5.53h-4.95l2.48-5.53ZM9.61,15.37c-.21,1.29-1.34,2.27-2.68,2.27s-2.47-.98-2.68-2.27h5.36Z"/>
      <path class="st0" d="M6.93,4.23c-.25,0-.45.2-.45.45s.2.45.45.45h15.69c.25,0,.45-.2.45-.45s-.2-.45-.45-.45H6.93Z"/>
    </g>
  </g>
</svg>