<?xml version="1.0" encoding="UTF-8"?>
<svg id="OBJECTS" xmlns="http://www.w3.org/2000/svg" version="1.1" viewBox="0 0 29.9 30">
  <!-- Generator: Adobe Illustrator 29.0.0, SVG Export Plug-In . SVG Version: 2.1.0 Build 186)  -->
  <defs>
    <style>
      .st0 {
        fill: #27295e;
      }
    </style>
  </defs>
  <path class="st0" d="M14.95,30C6.68,30-.05,23.27-.05,15S6.68,0,14.95,0s15,6.73,15,15-6.73,15-15,15ZM14.95.82C7.13.82.76,7.19.76,15.01s6.37,14.19,14.19,14.19,14.19-6.37,14.19-14.19S22.77.82,14.95.82Z"/>
  <g>
    <g>
      <path class="st0" d="M9.18,24.51c0,.61-.42,1.11-.94,1.11.52,0,.94.5.94,1.11,0-.61.42-1.11.94-1.11-.52,0-.94-.5-.94-1.11Z"/>
      <path class="st0" d="M20.46,2.74c0,.61-.42,1.11-.94,1.11.52,0,.94.5.94,1.11,0-.61.42-1.11.94-1.11-.52,0-.94-.5-.94-1.11Z"/>
      <path class="st0" d="M9.78,14.31c0,.61-.42,1.11-.94,1.11.52,0,.94.5.94,1.11,0-.61.42-1.11.94-1.11-.52,0-.94-.5-.94-1.11Z"/>
      <path class="st0" d="M22.3,14.63c0,.19-.16.35-.35.35s-.35-.16-.35-.35.16-.35.35-.35.35.16.35.35Z"/>
      <circle class="st0" cx="8.15" cy="4.26" r=".35"/>
      <path class="st0" d="M5.7,13.64c0,.19-.16.35-.35.35s-.35-.16-.35-.35.16-.35.35-.35.35.16.35.35Z"/>
    </g>
    <g>
      <path class="st0" d="M6.32,11.81s.03.05.05.07c.72.99,1.89,1.64,3.2,1.64h7.84c1.12,0,2.46-.86,2.97-1.22l3.93,1.2s.09.02.13.02c.12,0,.25-.05.33-.15.12-.13.15-.31.09-.47-.87-2.22-.87-4.48,0-6.7.07-.17.03-.35-.1-.48-.12-.13-.31-.17-.48-.11l-3.84,1.39c-.75-.89-1.86-1.42-3.04-1.42h-.16l.44-.94c.07-.14.06-.3-.03-.43-.08-.13-.23-.21-.38-.21h-5.78c-.18,0-.33.1-.41.26l-.62,1.33h-.9c-2.19,0-3.97,1.78-3.97,3.97,0,.84.26,1.62.71,2.26ZM15.43,4.9h1.15l-.32.68h-1.15l.32-.68ZM13.51,4.9h.92l-.32.68h-.92l.32-.68ZM11.79,4.9h.71l-.32.68h-.71l.32-.68ZM9.58,6.49h7.84c1,0,1.94.49,2.51,1.31.12.17.33.24.52.17l3.26-1.18c-.07.24-.13.49-.19.73l-2.27.62c-.24.07-.38.31-.32.56.05.2.24.33.44.33.04,0,.08,0,.12-.02l1.87-.51c-.03.24-.05.49-.05.73h-1.94c-.25,0-.45.2-.45.45s.2.45.45.45h1.95c.02.25.04.51.08.76l-1.92-.48c-.24-.06-.49.09-.55.33-.06.24.09.49.33.55l2.33.58c.04.17.09.34.14.51l-3.3-1.01c-.14-.04-.29-.02-.41.07-.43.33-1.74,1.18-2.61,1.18h-5.32c.88-.73,1.45-1.83,1.45-3.06,0-.25-.2-.45-.45-.45s-.45.2-.45.45c0,1.69-1.37,3.06-3.06,3.06-.66,0-1.27-.21-1.77-.57.56-.05,1.19-.19,1.61-.56.31-.27.47-.64.47-1.07,0-.25-.2-.45-.45-.45s-.45.2-.45.45c0,.17-.05.29-.17.39-.37.32-1.25.38-1.84.34-.29-.47-.45-1.01-.45-1.6,0-1.69,1.37-3.06,3.06-3.06Z"/>
      <path class="st0" d="M9.44,8.92c.33,0,.61-.27.61-.61s-.27-.61-.61-.61-.61.27-.61.61.27.61.61.61Z"/>
      <path class="st0" d="M13.84,8.79c.09.08.2.13.31.13.12,0,.24-.05.33-.14.64-.67.29-1.46.02-1.78-.16-.19-.44-.21-.63-.06-.19.16-.22.44-.06.63.08.1.24.35.02.58-.17.18-.17.47.01.64Z"/>
      <path class="st0" d="M14.15,12.32c.12,0,.24-.05.33-.14.64-.67.29-1.46.02-1.78-.16-.19-.44-.21-.63-.06-.19.16-.22.44-.06.63.08.1.24.35.02.58-.17.18-.17.47.01.64.09.08.2.13.31.13Z"/>
      <path class="st0" d="M16.89,8.79c.09.08.2.13.31.13.12,0,.24-.05.33-.14.64-.67.29-1.46.02-1.78-.16-.19-.44-.21-.63-.06-.19.16-.22.44-.06.63.08.1.24.35.02.58-.17.18-.17.47.01.64Z"/>
      <path class="st0" d="M17.2,12.32c.12,0,.24-.05.33-.14.64-.67.29-1.46.02-1.78-.16-.19-.44-.21-.63-.06-.19.16-.22.44-.06.63.08.1.24.35.02.58-.17.18-.17.47.01.64.09.08.2.13.31.13Z"/>
      <path class="st0" d="M15.25,10.59c.09.08.2.13.31.13.12,0,.24-.05.33-.14.64-.67.29-1.46.02-1.78-.16-.19-.44-.21-.63-.06-.19.16-.22.44-.06.63.08.1.24.35.02.58-.17.18-.17.47.01.64Z"/>
      <path class="st0" d="M18.3,10.59c.09.08.2.13.31.13.12,0,.24-.05.33-.14.64-.67.29-1.46.02-1.78-.16-.19-.44-.21-.63-.06-.19.16-.22.44-.06.63.08.1.24.35.02.58-.17.18-.17.47.01.64Z"/>
      <path class="st0" d="M20.93,17.1h-.9l-.62-1.33c-.07-.16-.23-.26-.41-.26h-5.78c-.15,0-.3.08-.38.21-.08.13-.09.29-.03.43l.44.94h-.16c-1.18,0-2.29.52-3.04,1.42l-3.84-1.39c-.17-.06-.35-.02-.48.11-.12.13-.16.32-.1.48.87,2.22.87,4.48,0,6.7-.06.16-.03.35.09.47.09.09.21.15.33.15.04,0,.09,0,.13-.02l3.93-1.2c.51.36,1.85,1.22,2.97,1.22h7.84c1.32,0,2.48-.65,3.21-1.64.02-.02.03-.04.05-.07.45-.64.71-1.42.71-2.26,0-2.19-1.78-3.97-3.97-3.97ZM18.72,16.42l.32.68h-.71l-.32-.68h.71ZM17,16.42l.32.68h-.92l-.32-.68h.92ZM15.08,16.42l.32.68h-1.15l-.32-.68h1.15ZM23.54,22.66c-.6.04-1.48-.02-1.84-.34-.12-.1-.17-.22-.17-.39,0-.25-.2-.45-.45-.45s-.45.2-.45.45c0,.43.16.8.47,1.07.42.37,1.05.51,1.61.56-.5.36-1.11.57-1.77.57-1.69,0-3.06-1.37-3.06-3.06,0-.25-.2-.45-.45-.45s-.45.2-.45.45c0,1.23.56,2.33,1.45,3.06h-5.32c-.87,0-2.18-.85-2.61-1.18-.12-.09-.27-.11-.41-.07l-3.3,1.01c.05-.17.1-.34.14-.51l2.33-.58c.24-.06.39-.31.33-.55-.06-.24-.31-.39-.55-.33l-1.92.48c.04-.25.06-.5.08-.76h1.95c.25,0,.45-.2.45-.45s-.2-.45-.45-.45h-1.94c0-.24-.03-.49-.05-.73l1.87.51s.08.02.12.02c.2,0,.38-.13.44-.33.07-.24-.08-.49-.32-.56l-2.27-.62c-.05-.24-.11-.49-.19-.73l3.26,1.18c.19.07.41,0,.52-.17.57-.82,1.51-1.31,2.51-1.31h7.84c1.69,0,3.06,1.37,3.06,3.06,0,.59-.17,1.13-.45,1.6Z"/>
      <circle class="st0" cx="21.07" cy="19.83" r=".61"/>
      <path class="st0" d="M16.71,19.09c.16-.19.13-.47-.06-.63-.19-.16-.48-.14-.64.06-.27.33-.62,1.12.02,1.78.09.09.21.14.33.14s.23-.04.31-.13c.18-.17.19-.46.01-.64-.22-.22-.06-.48.02-.58Z"/>
      <path class="st0" d="M16.71,22.49c.16-.19.13-.47-.06-.63-.19-.16-.48-.14-.64.06-.27.33-.62,1.12.02,1.78.09.09.21.14.33.14s.23-.04.31-.13c.18-.17.19-.46.01-.64-.22-.22-.06-.48.02-.58Z"/>
      <path class="st0" d="M13.66,19.09c.16-.19.13-.47-.06-.63-.19-.16-.48-.14-.64.06-.27.33-.62,1.12.02,1.78.09.09.21.14.33.14s.23-.04.31-.13c.18-.17.19-.46.01-.64-.22-.22-.06-.48.02-.58Z"/>
      <path class="st0" d="M13.66,22.49c.16-.19.13-.47-.06-.63-.19-.16-.48-.14-.64.06-.27.33-.62,1.12.02,1.78.09.09.21.14.33.14s.23-.04.31-.13c.18-.17.19-.46.01-.64-.22-.22-.06-.48.02-.58Z"/>
      <path class="st0" d="M15.3,20.89c.16-.19.13-.47-.06-.63-.19-.16-.48-.14-.64.06-.27.33-.62,1.12.02,1.78.09.09.21.14.33.14s.23-.04.31-.13c.18-.17.19-.46.01-.64-.22-.22-.06-.48.02-.58Z"/>
      <path class="st0" d="M12.25,20.89c.16-.19.13-.47-.06-.63-.19-.16-.48-.14-.64.06-.27.33-.62,1.12.02,1.78.09.09.21.14.33.14s.23-.04.31-.13c.18-.17.19-.46.01-.64-.22-.22-.06-.48.02-.58Z"/>
    </g>
  </g>
</svg>