<?xml version="1.0" encoding="UTF-8"?>
<svg id="OBJECTS" xmlns="http://www.w3.org/2000/svg" version="1.1" viewBox="0 0 29.9 30">
  <!-- Generator: Adobe Illustrator 29.0.0, SVG Export Plug-In . SVG Version: 2.1.0 Build 186)  -->
  <defs>
    <style>
      .st0 {
        fill: #27295e;
      }
    </style>
  </defs>
  <path class="st0" d="M14.95,30C6.68,30-.05,23.27-.05,15S6.68,0,14.95,0s15,6.73,15,15-6.73,15-15,15ZM14.95.81C7.13.81.76,7.18.76,15s6.37,14.19,14.19,14.19,14.19-6.37,14.19-14.19S22.77.81,14.95.81Z"/>
  <g>
    <g>
      <path class="st0" d="M16.14,9.97c0,.68-.46,1.23-1.04,1.23.57,0,1.04.55,1.04,1.23,0-.68.46-1.23,1.04-1.23-.57,0-1.04-.55-1.04-1.23Z"/>
      <path class="st0" d="M17.17,23.71c0,.68-.46,1.23-1.04,1.23.57,0,1.04.55,1.04,1.23,0-.68.46-1.23,1.04-1.23-.57,0-1.04-.55-1.04-1.23Z"/>
      <path class="st0" d="M3.27,9.97c0,.68-.46,1.23-1.04,1.23.57,0,1.04.55,1.04,1.23,0-.68.46-1.23,1.04-1.23-.57,0-1.04-.55-1.04-1.23Z"/>
      <path class="st0" d="M11.66,20.57c0,.21-.17.39-.39.39s-.39-.17-.39-.39.17-.39.39-.39.39.17.39.39Z"/>
      <path class="st0" d="M25.33,17.25c0,.21-.17.39-.39.39s-.39-.17-.39-.39.17-.39.39-.39.39.17.39.39Z"/>
      <path class="st0" d="M22.49,4.22c0,.21-.17.39-.39.39s-.39-.17-.39-.39.17-.39.39-.39.39.17.39.39Z"/>
    </g>
    <path class="st0" d="M25.83,21.79l-2.17.71-.31-.31,1.7-.55c.26-.08.4-.36.31-.62-.08-.26-.36-.4-.62-.31l-2.17.71-.31-.31,1.7-.55c.26-.08.4-.36.31-.62-.08-.26-.36-.4-.62-.31l-1.54.5,3.87-10.32s0-.02,0-.03c0-.02.01-.03.01-.05,0-.02,0-.03,0-.05,0-.02,0-.03,0-.05,0-.02,0-.03,0-.05,0-.01,0-.03,0-.04,0-.02,0-.03-.01-.05,0-.02,0-.03-.02-.04,0-.01-.01-.03-.02-.04,0-.01-.01-.03-.02-.04-.01-.02-.02-.03-.04-.05,0,0-.01-.02-.02-.02l-1.2-1.2c-4.33-4.33-11.3-4.44-15.77-.34l-1.49-1.49,1.75-.1c.27-.02.48-.25.46-.52-.02-.27-.25-.48-.52-.46l-2.85.16s-.02,0-.03,0c-.01,0-.03,0-.04,0-.02,0-.03,0-.05.01-.01,0-.03,0-.04.01-.02,0-.03.02-.05.03-.01,0-.02.01-.03.02-.05.04-.1.08-.13.13,0,.01-.01.02-.02.03,0,.02-.02.03-.03.05,0,.01,0,.03-.01.04,0,.02-.01.03-.01.05,0,.01,0,.03,0,.04,0,.01,0,.02,0,.03l-.16,2.85c-.01.27.19.5.46.52,0,0,.02,0,.03,0,.26,0,.47-.2.49-.46l.1-1.75,1.49,1.49c-1.94,2.11-3,4.83-3,7.71,0,3.05,1.19,5.91,3.34,8.06l1.19,1.19s0,0,0,0c.02.02.04.04.06.05,0,0,0,0,.01,0,.04.02.08.04.12.06,0,0,.02,0,.03,0,.04.01.08.02.12.02,0,0,0,0,0,0,.03,0,.06,0,.09,0,.01,0,.02,0,.03,0,.02,0,.03,0,.05-.01l10.31-3.86-.49,1.54c-.08.26.06.53.32.62.05.02.1.02.15.02.21,0,.4-.13.47-.34l.55-1.7.31.31-.7,2.18c-.08.26.06.53.32.62.05.02.1.02.15.02.21,0,.4-.13.47-.34l.55-1.7.31.31-.7,2.18c-.08.26.06.53.32.62.05.02.1.02.15.02.21,0,.4-.13.47-.34l.55-1.7.27.27c.1.1.22.14.35.14s.25-.05.35-.14c.19-.19.19-.5,0-.69l-.26-.26,1.7-.55c.26-.08.4-.36.31-.62-.08-.26-.36-.4-.62-.31ZM16.61,5.72c1.28,0,2.57.24,3.78.71-3.15-.48-6.54.67-9.43,3.37l-1.37-1.37c1.98-1.81,4.5-2.71,7.01-2.71ZM6.18,16.14c0-2.62.96-5.09,2.71-7.01l1.37,1.37c-2.72,2.89-3.86,6.3-3.37,9.45-.47-1.2-.71-2.48-.71-3.81ZM10.22,24.48c-3.5-3.72-3.19-9.09.74-13.29l9.46,9.46-10.21,3.83ZM21.12,19.96l-9.46-9.46c1.97-1.84,4.31-2.95,6.62-3.15,2.48-.21,4.78.62,6.67,2.4l-3.83,10.21Z"/>
  </g>
</svg>