<?xml version="1.0" encoding="UTF-8"?>
<svg id="OBJECTS" xmlns="http://www.w3.org/2000/svg" version="1.1" viewBox="0 0 29.9 30">
  <!-- Generator: Adobe Illustrator 29.0.0, SVG Export Plug-In . SVG Version: 2.1.0 Build 186)  -->
  <defs>
    <style>
      .st0 {
        fill: #27295e;
      }
    </style>
  </defs>
  <path class="st0" d="M14.95,30C6.68,30-.05,23.27-.05,15S6.68,0,14.95,0s15,6.73,15,15-6.73,15-15,15ZM14.95.82C7.13.82.76,7.19.76,15.01s6.37,14.19,14.19,14.19,14.19-6.37,14.19-14.19S22.77.82,14.95.82Z"/>
  <g>
    <g>
      <path class="st0" d="M7.54,11.61c-.79.56-1.66,1.47-2.1,2.85-.05.15-.03.3.06.43.08.13.22.21.37.23.02,0,.17.02.41.02.58,0,1.7-.09,2.78-.67v3.8c0,1.45.69,1.84,1.43,2.26.2.12.41.24.63.39-.08.25-.13.51-.13.77,0,1.03.66,1.94,1.67,2.5v.5c0,1.26,1.03,2.29,2.29,2.29s2.29-1.03,2.29-2.29v-.5c1.01-.56,1.67-1.47,1.67-2.5,0-.11,0-.21-.02-.32.12-.1.24-.2.36-.29.85-.67,1.58-1.24,1.58-2.82v-2.04c.01-.1.02-.2.02-.3,0-.04,0-.09-.02-.13v-1.36c1.1.6,2.25.7,2.84.7.24,0,.38-.01.41-.02.15-.02.29-.1.37-.23.08-.13.1-.29.06-.43-.45-1.39-1.32-2.3-2.11-2.86,1.73-.31,3.06-1.03,3.97-2.16,1.91-2.39,1.21-5.68,1.17-5.82-.06-.25-.29-.42-.55-.39-.26.03-.45.25-.45.51,0,3.84-6.15,3.89-6.22,3.89h-10.75c-.06,0-6.22-.05-6.22-3.89,0-.26-.19-.48-.45-.51-.26-.03-.5.14-.55.39-.03.14-.74,3.43,1.17,5.82.92,1.15,2.26,1.87,4.02,2.17ZM20.84,8.63c1.81-.09,4.38-.67,5.76-2.26-.13.81-.42,1.68-1.02,2.43-.97,1.21-2.56,1.86-4.74,1.94v-2.12ZM20.84,11.88c.58.25,1.76.89,2.44,2.23-.64-.05-1.6-.24-2.44-.88v-1.35ZM16.23,24.71c0,.7-.57,1.28-1.28,1.28s-1.28-.57-1.28-1.28v-.1c.4.11.83.17,1.28.17s.87-.06,1.28-.17v.1ZM17.24,22.99v-.95c0-.28-.23-.51-.51-.51s-.51.23-.51.51v1.51c-.39.13-.82.2-1.28.2s-.89-.07-1.28-.2v-1.51c0-.28-.23-.51-.51-.51s-.51.23-.51.51v.95c-.41-.35-.65-.8-.65-1.29,0-.24.06-.48.18-.69,0,0,0,0,0-.01.42-.78,1.49-1.34,2.76-1.34,1.62,0,2.95.92,2.95,2.05,0,.49-.25.93-.65,1.28ZM19.82,16.15c-.04.18-.13.35-.27.48-.2.19-.46.3-.75.31-.28,0-.56-.09-.76-.28-.19-.17-.29-.4-.31-.64.93-.28,1.61-.68,2.08-1.05v1.18ZM10.08,8.64h9.74v4.9c-.28.39-1.55,1.85-4.87,1.85s-4.56-1.52-4.87-1.96v-4.78ZM10.08,14.89c.48.4,1.17.82,2.12,1.12-.02.52-.48.93-1.05.93,0,0-.01,0-.02,0-.29,0-.55-.11-.75-.31-.19-.19-.29-.43-.29-.69,0-.04,0-.08-.01-.12v-.94ZM10.08,17.67c.31.18.66.28,1.03.29.01,0,.03,0,.04,0,1.04,0,1.9-.74,2.04-1.71.52.09,1.11.15,1.76.15s1.26-.05,1.79-.15c.07.44.28.85.62,1.16.39.35.89.55,1.42.55.01,0,.03,0,.04,0,.36,0,.69-.1.99-.27v.58c0,1.08-.4,1.4-1.2,2.02-.03.03-.07.06-.11.08-.64-1.03-2-1.74-3.57-1.74-1.39,0-2.62.56-3.33,1.41-.23-.15-.44-.28-.63-.39-.67-.38-.91-.52-.91-1.38v-.6ZM9.06,13.27c-.81.59-1.75.78-2.38.83.66-1.3,1.78-1.94,2.38-2.2v1.37ZM9.06,8.63v2.12c-2.18-.08-3.77-.74-4.74-1.94-.6-.75-.89-1.63-1.02-2.44,1.38,1.59,3.95,2.17,5.76,2.26Z"/>
      <path class="st0" d="M12.13,11.77h2.31v2.19c0,.28.23.51.51.51s.51-.23.51-.51v-2.19h2.26c.28,0,.51-.23.51-.51s-.23-.51-.51-.51h-5.59c-.28,0-.51.23-.51.51s.23.51.51.51Z"/>
    </g>
    <g>
      <path class="st0" d="M6.69,17.5c0,.69-.47,1.25-1.06,1.25.58,0,1.06.56,1.06,1.25,0-.69.47-1.25,1.06-1.25-.58,0-1.06-.56-1.06-1.25Z"/>
      <path class="st0" d="M17.29,3c0,.69-.47,1.25-1.06,1.25.58,0,1.06.56,1.06,1.25,0-.69.47-1.25,1.06-1.25-.58,0-1.06-.56-1.06-1.25Z"/>
      <path class="st0" d="M22.06,20.01c0,.69-.47,1.25-1.06,1.25.58,0,1.06.56,1.06,1.25,0-.69.47-1.25,1.06-1.25-.58,0-1.06-.56-1.06-1.25Z"/>
      <circle class="st0" cx="23.28" cy="17.9" r=".4"/>
      <circle class="st0" cx="12.91" cy="5.98" r=".4"/>
      <path class="st0" d="M5.01,12.61c0,.22-.18.4-.4.4s-.4-.18-.4-.4.18-.4.4-.4.4.18.4.4Z"/>
    </g>
  </g>
</svg>