<?xml version="1.0" encoding="UTF-8"?>
<svg id="OBJECTS" xmlns="http://www.w3.org/2000/svg" version="1.1" viewBox="0 0 30 30">
  <!-- Generator: Adobe Illustrator 29.0.0, SVG Export Plug-In . SVG Version: 2.1.0 Build 186)  -->
  <defs>
    <style>
      .st0 {
        fill: #27295e;
      }
    </style>
  </defs>
  <path class="st0" d="M15,30C6.73,30,0,23.27,0,15S6.73,0,15,0s15,6.73,15,15-6.73,15-15,15ZM15,.81C7.18.81.81,7.18.81,15s6.37,14.19,14.19,14.19,14.19-6.37,14.19-14.19S22.82.81,15,.81Z"/>
  <g>
    <g>
      <path class="st0" d="M26.84,17.81c-1.29-1.17-2.5-2.27-2.65-4.41-.23-3.3-1.86-8.84-10.11-8.84-2.51,0-4.2.5-5.16,1.52-1.07,1.13-.99,2.61-.93,3.7.02.42.05.9-.03,1.09-.18.45-.84,1.09-1.48,1.72-1.14,1.12-2.44,2.38-2.44,3.78,0,1.21.79,2,1.42,2.64.61.61.87.92.78,1.28-.02.1-.13.14-.75.23-1.1.15-2.94.41-3.69,3.41-.09.35.12.7.47.78.35.09.7-.12.78-.47.54-2.16,1.6-2.31,2.62-2.45.68-.09,1.6-.22,1.83-1.22.25-1.09-.48-1.83-1.13-2.48-.54-.54-1.04-1.05-1.04-1.73,0-.85,1.09-1.91,2.05-2.85.77-.75,1.49-1.46,1.77-2.16.19-.46.16-1.01.12-1.65-.05-.94-.11-2.01.58-2.74.7-.74,2.12-1.12,4.22-1.12,6.85,0,8.58,4.16,8.82,7.64.19,2.66,1.72,4.05,3.07,5.28,1.51,1.37,2.71,2.46,1.91,5.12-.1.34.09.7.43.8.06.02.12.03.19.03.28,0,.53-.18.62-.46,1.03-3.44-.73-5.04-2.28-6.45Z"/>
      <path class="st0" d="M23.58,23.43c-.69-.02-1.35-.05-1.97-.1-.2-.45-.48-1.41.13-2.38,1.51-2.39.91-3.4-.09-4.56-.13-.15-.26-.3-.4-.48-.12-.15-.19-.29-.23-.42,0-.02,0-.03-.01-.05-.07-.29,0-.56.09-.91.27-1.03.36-2.03-1.42-3.07-2.79-1.63-2.9-3.48-2.9-3.55,0-.35-.29-.64-.65-.64-4.56,0-6.48,3.04-6.74,5.65-.08.8-.02,1.64.19,2.47-.48.47-1.28,1.48-1.29,2.96,0,.82.46,1.54.9,2.24.75,1.16,1.11,1.84.27,2.73-.65.06-1.35.09-2.09.11-.36.01-.64.31-.62.67.01.35.3.62.64.62,0,0,.01,0,.02,0,2.68-.09,6.02-.19,6.77-2.65.02-.06.03-.12.03-.19v-1.24c.42.16.85.3,1.32.39.11.02.22.02.33-.02.05-.02.39-.13.87-.36v1.23c0,.06,0,.13.03.19.75,2.46,4.09,2.57,6.77,2.65,0,0,.01,0,.02,0,.35,0,.63-.28.64-.62.01-.36-.27-.65-.62-.67ZM12.93,21.77c-.24.66-.9,1.05-1.81,1.28.4-1.23-.31-2.35-.83-3.16-.36-.56-.7-1.09-.7-1.53,0-.66.24-1.19.49-1.57.59,1.26,1.54,2.4,2.84,3.21v1.78ZM15.62,19.72c-3.57-.82-5.21-4.03-4.94-6.68.21-2.06,1.62-4.25,4.92-4.47.24.9.99,2.57,3.43,3.99,1.08.63,1,.95.82,1.63-.1.4-.23.89-.12,1.45-.59,2.55-3.42,3.8-4.12,4.07ZM18.03,21.77v-1.86c.93-.62,1.94-1.53,2.55-2.8.03.04.07.08.1.11.75.86,1.09,1.26-.03,3.03-.67,1.07-.64,2.12-.46,2.88-1.1-.22-1.89-.62-2.16-1.36Z"/>
      <path class="st0" d="M14.5,13.93c-.09-.15-.29-.21-.44-.12-.72.42-1.46.02-1.5,0-.16-.09-.35-.03-.44.12-.09.15-.03.35.12.44.03.02.5.28,1.11.28.32,0,.68-.07,1.03-.28.15-.09.21-.29.12-.44Z"/>
      <path class="st0" d="M19.08,13.93c-.09-.15-.29-.21-.44-.12-.72.42-1.46.02-1.5,0-.16-.09-.35-.03-.44.12-.09.15-.03.35.12.44.03.02.5.28,1.11.28.32,0,.68-.07,1.03-.28.15-.09.21-.29.12-.44Z"/>
      <path class="st0" d="M16.58,16.94h-1.75c-.18,0-.32.14-.32.32s.14.32.32.32h1.75c.18,0,.32-.14.32-.32s-.14-.32-.32-.32Z"/>
    </g>
    <g>
      <path class="st0" d="M26.51,12.67c0,.72-.49,1.3-1.1,1.3.61,0,1.1.58,1.1,1.3,0-.72.49-1.3,1.1-1.3-.61,0-1.1-.58-1.1-1.3Z"/>
      <path class="st0" d="M16.01,1.68c0,.72-.49,1.3-1.1,1.3.61,0,1.1.58,1.1,1.3,0-.72.49-1.3,1.1-1.3-.61,0-1.1-.58-1.1-1.3Z"/>
      <path class="st0" d="M6.03,8.8c.05.72-.4,1.33-1.01,1.37.61-.04,1.14.51,1.18,1.23-.05-.72.4-1.33,1.01-1.37-.61.04-1.14-.51-1.18-1.23Z"/>
      <circle class="st0" cx="23.79" cy="7.75" r=".41"/>
      <circle class="st0" cx="11.26" cy="3.87" r=".41"/>
      <path class="st0" d="M4.2,19.46c0,.23-.18.41-.41.41s-.41-.18-.41-.41.18-.41.41-.41.41.18.41.41Z"/>
    </g>
  </g>
</svg>